<?xml version="1.0" encoding="iso-8859-1"?>
<!-- Generator: Adobe Illustrator 19.0.0, SVG Export Plug-In . SVG Version: 6.00 Build 0)  -->
<svg version="1.1" id="Capa_1" xmlns="http://www.w3.org/2000/svg" xmlns:xlink="http://www.w3.org/1999/xlink" x="0px" y="0px"
	 viewBox="0 0 368 368" style="enable-background:new 0 0 368 368;" xml:space="preserve">
<g>
	<g>
		<g>
			<path d="M261.336,258.04c-3.304-2.952-8.352-2.672-11.296,0.624C233.352,277.312,209.28,288,184,288
				c-25.28,0-49.352-10.688-66.04-29.336c-2.944-3.288-8-3.576-11.296-0.624c-3.296,2.944-3.568,8-0.624,11.296
				C125.76,291.368,154.176,304,184,304c29.832,0,58.24-12.64,77.96-34.664C264.904,266.04,264.624,260.984,261.336,258.04z"/>
			<path d="M344,80h-8.304C301.312,29.856,244.976,0,184,0C123.016,0,66.68,29.856,32.304,80H24C10.768,80,0,90.768,0,104v80
				c0,101.456,82.544,184,184,184c101.464,0,184-82.544,184-184v-80C368,90.768,357.232,80,344,80z M184,16
				c51.904,0,100.112,23.704,131.856,64H52.152C83.88,39.704,132.088,16,184,16z M184,352c-80.928,0-148.656-57.528-164.488-133.832
				C25.528,221.792,32.48,224,40,224h80c22.056,0,40-17.944,40-40v-24h48v24c0,22.056,17.944,40,40,40h80
				c7.52,0,14.472-2.208,20.488-5.832C332.656,294.472,264.928,352,184,352z M352,184c0,13.232-10.768,24-24,24h-80
				c-13.232,0-24-10.768-24-24v-24c0-8.824-7.176-16-16-16h-48c-8.824,0-16,7.176-16,16v24c0,13.232-10.768,24-24,24H40
				c-13.232,0-24-10.768-24-24v-80c0-4.408,3.592-8,8-8h320c4.416,0,8,3.592,8,8V184z"/>
		</g>
	</g>
</g>
<g>
</g>
<g>
</g>
<g>
</g>
<g>
</g>
<g>
</g>
<g>
</g>
<g>
</g>
<g>
</g>
<g>
</g>
<g>
</g>
<g>
</g>
<g>
</g>
<g>
</g>
<g>
</g>
<g>
</g>
</svg>
